# xmcd CD database file
#
# Track frame offsets:
#	150
#	20490
#	43625
#	60232
#	82297
#	96465
#	118470
#	139032
#	162890
#	182615
#	220320
#
# Disc length: 3149 seconds
#
# Revision: 0
# Processed by: cddbd v1.5.1PL0 Copyright (c) Steve Scherf et al.
# Submitted via: CDex 1.51
#
DISCID=9d0c4b0b
DTITLE=Herb Bruce - Herbicide
DYEAR=1900
DGENRE=Jazz
TTITLE0=Theme From "The Avengers"
TTITLE1=I'll Always Love You
TTITLE2=Theme From "The Untouchables"
TTITLE3=Where's Sybil?
TTITLE4=Can You Read My Mind?
TTITLE5=Gospel Train
TTITLE6=Mornin'
TTITLE7=Theme From "Naked Gun"
TTITLE8=Sweet One
TTITLE9=S'more Blues
TTITLE10=Herbicice
EXTD=
EXTT0=
EXTT1=
EXTT2=
EXTT3=
EXTT4=
EXTT5=
EXTT6=
EXTT7=
EXTT8=
EXTT9=
EXTT10=
PLAYORDER=
